<svg width="41" height="46" viewBox="0 0 41 46" fill="none" xmlns="http://www.w3.org/2000/svg">
<path d="M22.946 1.0184L22.106 1C17.017 1 12.096 2.9458 8.38133 6.5384L8.17833 6.7385L7.672 7.2606L7.22633 7.7597C1.561 14.3009 0.993999 23.5998 5.53233 30.6171L5.76333 30.9598L0 36.6408L2.72533 39.3226L3.20833 39.7826C10.7217 46.6366 22.2857 46.5952 29.7663 39.755L30.254 39.2904L30.5107 39.0328L30.996 38.5245L31.4393 38.0231C36.8923 31.613 37.499 22.6315 33.292 15.7269L32.851 15.0369L38.654 9.4295L35.966 6.7224L35.3943 6.1704C31.9177 2.9872 27.5357 1.2139 22.946 1.0207V1.0184ZM22.071 8.36L22.708 8.3738L23.296 8.4152C24.6657 8.5417 26.0097 8.9097 27.2627 9.5008L27.692 9.7147L22.5843 14.6551L25.4543 17.6221C29.6147 22.0496 29.6473 28.9864 25.487 33.5565L25.116 33.9475L24.6377 34.4075L24.2013 34.7847C20.5053 37.8506 15.3417 38.3773 11.1487 36.3395L10.9643 36.2429L16.0603 31.222L13.3537 28.554L13.0107 28.1906C8.90867 23.7378 8.939 16.8056 13.1367 12.2746L13.5193 11.879L13.6313 11.7709C15.764 9.7078 18.5547 8.5279 21.4783 8.3761L22.071 8.36Z" fill="white"/>
<path fill-rule="evenodd" clip-rule="evenodd" d="M5.2832 36.639L5.3532 36.708C11.4945 42.7639 21.4835 42.734 27.6645 36.6413L27.8489 36.4573C33.8455 30.3531 33.8152 20.6425 27.7322 14.6464L27.6622 14.582L5.28554 36.639H5.2832Z" fill="url(#paint0_linear_5034_1053)"/>
<path opacity="0.45" fill-rule="evenodd" clip-rule="evenodd" d="M10.8008 31.2012L28.8748 15.9016C28.8748 15.9016 28.0581 14.9218 27.7688 14.6826L10.8008 31.2012Z" fill="#BB0E44"/>
<path fill-rule="evenodd" clip-rule="evenodd" d="M10.9981 9.16469L10.8114 9.34639C4.7564 15.3954 4.6934 25.1037 10.7157 31.155L10.7857 31.224L33.3771 9.37399L33.3094 9.30729C30.2411 6.22529 26.1811 4.67969 22.1094 4.67969C18.1054 4.67969 14.0897 6.17469 10.9981 9.16469Z" fill="url(#paint1_linear_5034_1053)"/>
<defs>
<linearGradient id="paint0_linear_5034_1053" x1="12.606" y1="40.7356" x2="31.1545" y2="20.559" gradientUnits="userSpaceOnUse">
<stop stop-color="#5EB1FB"/>
<stop offset="1" stop-color="#BA75D1"/>
</linearGradient>
<linearGradient id="paint1_linear_5034_1053" x1="26.095" y1="5.41284" x2="7.50483" y2="25.2465" gradientUnits="userSpaceOnUse">
<stop stop-color="#FF80C1"/>
<stop offset="1" stop-color="#FF0150"/>
</linearGradient>
</defs>
</svg>
